<?xml version="1.0" encoding="UTF-8"?> <svg xmlns="http://www.w3.org/2000/svg" width="541" height="403" viewBox="0 0 541 403" fill="none"><g opacity="0.5"><path opacity="0.3" d="M388.175 164.728L388.065 102.762L308.402 56.7839V118.75L388.175 164.728Z" stroke="#2CD4D9" stroke-miterlimit="10" stroke-linecap="round" stroke-linejoin="round"></path></g><path opacity="0.2" d="M401.838 302.664L454.175 333.647L333.414 403L280.746 371.907L401.838 302.664Z" fill="url(#paint0_linear)"></path><path d="M107.869 273.334L294.52 381.169L414.619 310.823V155.246L226.977 47.4119L223.011 49.7273L229.622 196.152L107.869 266.939V273.334Z" fill="#C2D3EB"></path><path d="M107.869 266.939L294.52 374.773L410.102 307.625L223.451 199.791L107.869 266.939Z" fill="url(#paint1_linear)"></path><path d="M223.01 49.7273V199.681L410.101 307.736V157.782L223.01 49.7273Z" fill="url(#paint2_linear)"></path><path d="M170.562 293.843L239.317 333.536L281.848 308.838L213.093 269.034L170.562 293.843Z" fill="#C2D3EB"></path><path d="M219.264 265.285L288.018 304.979L298.485 298.915L229.731 259.221L219.264 265.285Z" fill="#C2D3EB"></path><path d="M225.435 256.575L215.959 251.062L205.271 257.237L214.747 262.75L225.435 256.575Z" fill="#C2D3EB"></path><path d="M207.805 230.443L194.252 222.725L183.564 228.9L197.117 236.618L207.805 230.443Z" fill="#C2D3EB"></path><path d="M235.791 214.345L222.239 206.627L211.551 212.802L225.103 220.52L235.791 214.345Z" fill="#C2D3EB"></path><path d="M368.562 322.841L349.5 311.925L338.812 318.1L357.874 329.016L368.562 322.841Z" fill="#C2D3EB"></path><path d="M396.109 307.074L377.047 296.048L366.359 302.222L385.421 313.138L396.109 307.074Z" fill="#C2D3EB"></path><path d="M200.312 242.131L180.92 230.664L170.232 236.838L189.625 248.305L200.312 242.131Z" fill="#C2D3EB"></path><path d="M212.985 249.408L203.399 243.895L192.711 250.07L202.297 255.583L212.985 249.408Z" fill="#C2D3EB"></path><path d="M271.051 266.498L261.465 260.985L250.777 267.16L260.253 272.673L271.051 266.498Z" fill="#C2D3EB"></path><path d="M220.586 237.5L211 231.987L200.312 238.162L209.788 243.675L220.586 237.5Z" fill="#C2D3EB"></path><path d="M233.148 244.777L223.672 239.264L212.984 245.439L222.46 250.952L233.148 244.777Z" fill="#C2D3EB"></path><path d="M245.928 252.165L236.342 246.652L225.654 252.826L235.13 258.339L245.928 252.165Z" fill="#C2D3EB"></path><path d="M258.49 259.442L249.014 253.929L238.326 260.103L247.802 265.616L258.49 259.442Z" fill="#C2D3EB"></path><path d="M333.746 302.884L324.27 297.371L313.582 303.546L323.058 309.059L333.746 302.884Z" fill="#C2D3EB"></path><path d="M346.305 310.161L336.719 304.648L326.031 310.823L335.507 316.336L346.305 310.161Z" fill="#C2D3EB"></path><path d="M283.281 273.886L273.805 268.373L263.117 274.547L272.593 280.06L283.281 273.886Z" fill="#C2D3EB"></path><path d="M295.951 281.163L286.366 275.65L275.678 281.824L285.264 287.337L295.951 281.163Z" fill="#C2D3EB"></path><path d="M308.623 288.55L299.147 283.037L288.459 289.212L297.935 294.725L308.623 288.55Z" fill="#C2D3EB"></path><path d="M321.295 295.827L311.709 290.314L301.021 296.489L310.607 302.002L321.295 295.827Z" fill="#C2D3EB"></path><path d="M278.543 255.141L268.957 249.628L258.27 255.803L267.855 261.206L278.543 255.141Z" fill="#C2D3EB"></path><path d="M228.079 226.033L208.356 214.786L197.668 220.961L217.281 232.207L228.079 226.033Z" fill="#C2D3EB"></path><path d="M240.64 233.31L231.164 227.797L220.477 233.972L229.952 239.485L240.64 233.31Z" fill="#C2D3EB"></path><path d="M253.422 240.698L243.836 235.185L233.148 241.359L242.624 246.872L253.422 240.698Z" fill="#C2D3EB"></path><path d="M265.982 247.975L256.506 242.462L245.818 248.636L255.294 254.149L265.982 247.975Z" fill="#C2D3EB"></path><path d="M341.238 291.527L331.762 286.014L321.074 292.189L330.55 297.592L341.238 291.527Z" fill="#C2D3EB"></path><path d="M353.799 298.694L344.213 293.181L333.525 299.356L343.001 304.869L353.799 298.694Z" fill="#C2D3EB"></path><path d="M366.248 305.971L356.662 300.458L345.975 306.523L355.561 312.036L366.248 305.971Z" fill="#C2D3EB"></path><path d="M290.773 262.419L281.297 256.906L270.609 263.08L280.085 268.593L290.773 262.419Z" fill="#C2D3EB"></path><path d="M303.445 269.696L293.859 264.183L283.281 270.357L292.757 275.87L303.445 269.696Z" fill="#C2D3EB"></path><path d="M316.115 277.083L306.639 271.57L295.951 277.745L305.427 283.258L316.115 277.083Z" fill="#C2D3EB"></path><path d="M328.787 284.36L319.311 278.847L308.623 285.022L318.099 290.535L328.787 284.36Z" fill="#C2D3EB"></path><path d="M298.817 250.731L289.231 245.218L278.543 251.393L288.129 256.796L298.817 250.731Z" fill="#C2D3EB"></path><path d="M248.352 221.623L238.766 216.11L228.078 222.284L237.664 227.797L248.352 221.623Z" fill="#C2D3EB"></path><path d="M260.914 228.9L251.438 223.387L240.75 229.561L250.226 235.074L260.914 228.9Z" fill="#C2D3EB"></path><path d="M273.696 236.287L264.11 230.774L253.422 236.949L263.008 242.462L273.696 236.287Z" fill="#C2D3EB"></path><path d="M286.255 243.564L276.78 238.051L266.092 244.226L275.568 249.739L286.255 243.564Z" fill="#C2D3EB"></path><path d="M358.316 285.022L348.84 279.509L338.152 285.684L347.628 291.197L358.316 285.022Z" fill="#C2D3EB"></path><path d="M372.089 293.071L362.614 287.558L351.926 293.732L361.402 299.245L372.089 293.071Z" fill="#C2D3EB"></path><path d="M311.046 258.008L301.571 252.495L290.883 258.67L300.359 264.183L311.046 258.008Z" fill="#C2D3EB"></path><path d="M323.718 265.285L314.243 259.772L303.555 265.947L313.03 271.46L323.718 265.285Z" fill="#C2D3EB"></path><path d="M336.5 272.673L326.914 267.16L316.227 273.334L325.702 278.847L336.5 272.673Z" fill="#C2D3EB"></path><path d="M345.866 277.965L336.28 272.452L325.592 278.627L335.178 284.14L345.866 277.965Z" fill="#C2D3EB"></path><path d="M312.369 306.743L302.893 301.23L292.205 307.405L301.681 312.918L312.369 306.743Z" fill="#C2D3EB"></path><path d="M325.04 314.02L315.565 308.507L304.877 314.682L314.353 320.195L325.04 314.02Z" fill="#C2D3EB"></path><path d="M337.712 321.408L328.237 315.895L317.549 322.069L327.025 327.582L337.712 321.408Z" fill="#C2D3EB"></path><path d="M350.382 328.685L340.907 323.172L330.219 329.346L339.694 334.859L350.382 328.685Z" fill="#C2D3EB"></path><path d="M406.024 193.727V181.047V180.496V161.531L377.597 145.212L288.459 94.0518L226.205 57.9968V76.9615V77.5128L226.315 195.822L288.459 231.766L377.597 283.037L406.024 299.356V193.727Z" fill="#C2D3EB"></path><g opacity="0.4"><path opacity="0.3" d="M81.4253 222.174V181.598L29.3086 151.607V192.073L81.4253 222.174Z" fill="#2F8DD3"></path></g><g opacity="0.4"><path opacity="0.3" d="M503.318 155.025V114.891L451.752 85.231V125.255L503.318 155.025Z" fill="#2F8DD3"></path></g><g opacity="0.5"><path opacity="0.3" d="M511.03 310.933V248.857L431.258 202.989L431.368 264.955L511.03 310.933Z" stroke="#5333ED" stroke-miterlimit="10" stroke-linecap="round" stroke-linejoin="round"></path></g><path opacity="0.2" d="M79.3318 149.071V87.877L0.550781 42.45V103.644L79.3318 149.071Z" stroke="#5333ED" stroke-miterlimit="10" stroke-linecap="round" stroke-linejoin="round"></path><g opacity="0.5"><path opacity="0.5" d="M207.805 310.933V249.298L128.363 203.54V265.285L207.805 310.933Z" stroke="#5333ED" stroke-miterlimit="10" stroke-linecap="round" stroke-linejoin="round"></path><g opacity="0.8"><path opacity="0.9" d="M185.769 282.706V278.186L147.205 256.023V260.544L185.769 282.706Z" fill="#5333ED"></path></g></g><path opacity="0.3" d="M242.072 270.909L319.752 315.674V309.5L242.072 264.734V270.909Z" fill="white"></path><path opacity="0.7" d="M337.932 212.14V151.828L260.473 107.173V167.485L337.932 212.14Z" fill="#5333ED"></path><path opacity="0.5" d="M310.937 172.446V163.736L283.611 147.969V156.679L310.937 172.446Z" fill="#DFE9F8"></path><path d="M240.42 157.12V95.9262L161.639 50.6094V111.804L240.42 157.12Z" fill="#5333ED"></path><path opacity="0.5" d="M188.304 86.9951V80.8205L172.438 71.6689V77.9538L188.304 86.9951Z" fill="white"></path><path opacity="0.5" d="M209.017 99.0135V92.7287L193.15 83.5771V89.862L209.017 99.0135Z" fill="white"></path><path opacity="0.5" d="M229.402 110.701V104.527L213.535 95.375V101.66L229.402 110.701Z" fill="white"></path><g opacity="0.7"><path opacity="0.7" d="M176.183 205.524L176.073 144.33L97.4023 98.9031V160.097L176.183 205.524Z" fill="#5333ED"></path></g><path d="M272.373 263.301V203.65L195.686 159.436V219.086L272.373 263.301Z" fill="#5333ED"></path><path opacity="0.5" d="M212.434 187.442V175.754L201.195 169.249V180.937L212.434 187.442Z" fill="#DFE9F8"></path><path opacity="0.5" d="M228.85 196.814V185.126L217.611 178.621V190.419L228.85 196.814Z" fill="#DFE9F8"></path><path opacity="0.5" d="M245.268 206.296V194.609L234.029 188.103V199.791L245.268 206.296Z" fill="#DFE9F8"></path><path opacity="0.5" d="M212.434 205.083V193.396L201.195 186.89V198.578L212.434 205.083Z" fill="#DFE9F8"></path><path opacity="0.5" d="M228.85 214.456V202.768L217.611 196.263V207.95L228.85 214.456Z" fill="#DFE9F8"></path><path opacity="0.5" d="M245.268 223.938V212.25L234.029 205.745V217.432L245.268 223.938Z" fill="#DFE9F8"></path><path opacity="0.5" d="M212.434 222.725V211.037L201.195 204.532V216.22L212.434 222.725Z" fill="#DFE9F8"></path><path opacity="0.5" d="M228.85 232.097V220.41L217.611 213.904V225.592L228.85 232.097Z" fill="#DFE9F8"></path><path opacity="0.5" d="M245.268 241.579V229.892L234.029 223.386V235.074L245.268 241.579Z" fill="#DFE9F8"></path><path d="M370.766 321.408V260.985L293.197 216.22V276.642L370.766 321.408Z" fill="#5333ED"></path><path opacity="0.5" d="M299.809 271.901L314.573 280.391V263.301L299.809 254.811V271.901Z" fill="white"></path><path opacity="0.5" d="M322.727 284.36L337.491 292.85V275.87L322.727 267.27V284.36Z" fill="white"></path><path opacity="0.5" d="M346.416 298.143L361.181 306.633V289.543L346.416 281.052V298.143Z" fill="white"></path><path opacity="0.5" d="M362.173 273.886V268.262L298.156 231.436V237.059L362.173 273.886Z" fill="#F3F3F6"></path><path d="M155.247 375.655L142.907 382.822L92.7734 351.619L105.114 344.452L155.247 375.655Z" fill="url(#paint3_linear)"></path><path d="M117.896 350.516C118.227 350.626 118.447 350.296 118.667 350.737C118.777 350.847 119.108 351.288 118.998 351.95C118.998 352.832 118.777 353.162 118.227 353.824C117.565 354.596 114.04 357.352 111.726 357.904C111.726 357.904 110.954 358.124 110.624 358.455C110.293 358.786 109.632 359.227 109.081 359.447L108.641 358.345L116.133 353.604L117.896 351.839V350.516Z" fill="#DFE9F8"></path><path d="M106.107 359.447C106.547 360.219 107.98 360.219 109.192 359.447C110.514 358.676 111.175 357.463 110.734 356.691C110.294 355.919 108.861 355.919 107.649 356.691C106.327 357.463 105.666 358.676 106.107 359.447Z" fill="#DFE9F8"></path><path d="M118.447 350.847C117.676 349.634 114.921 351.509 114.04 351.619C110.845 352.06 109.412 352.391 107.76 352.942C106.658 353.273 105.886 354.375 105.776 355.478C105.776 355.478 105.666 355.919 105.666 356.14C105.666 356.581 105.997 357.573 105.886 358.124C105.886 358.234 105.886 358.345 105.997 358.455C106.217 358.896 106.988 359.006 107.76 358.786C109.522 358.124 113.93 356.029 114.921 355.368C116.023 354.596 117.345 353.604 117.896 352.942C118.447 352.611 118.998 351.619 118.447 350.847Z" fill="#2CD4D9"></path><path d="M115.252 351.178C115.252 351.178 116.244 351.178 117.015 351.95" stroke="#2F8DD3" stroke-width="0.39" stroke-miterlimit="10" stroke-linecap="round"></path><path d="M114.371 351.619C114.371 351.619 115.363 351.619 116.134 352.391" stroke="#2F8DD3" stroke-width="0.39" stroke-miterlimit="10" stroke-linecap="round"></path><path d="M113.049 351.839C113.049 351.839 114.04 351.839 114.812 352.611" stroke="#2F8DD3" stroke-width="0.39" stroke-miterlimit="10" stroke-linecap="round"></path><path d="M111.727 352.06C111.727 352.06 112.718 352.06 113.489 352.832" stroke="#2F8DD3" stroke-width="0.39" stroke-miterlimit="10" stroke-linecap="round"></path><path d="M110.293 352.281C110.293 352.281 111.285 352.281 112.056 353.052" stroke="#2F8DD3" stroke-width="0.39" stroke-miterlimit="10" stroke-linecap="round"></path><path d="M106.217 355.147C106.548 355.699 107.65 355.699 108.751 355.147C109.743 354.596 110.294 353.604 109.963 352.942C109.633 352.391 108.531 352.391 107.429 352.942C106.438 353.604 105.887 354.486 106.217 355.147Z" fill="#EDA780"></path><path d="M104.234 342.578C104.564 342.688 104.785 342.357 105.005 342.798C105.115 342.908 105.446 343.349 105.336 344.011C105.336 344.893 105.115 345.224 104.564 345.885C103.903 346.657 100.377 349.414 98.0636 349.965C98.0636 349.965 97.2924 350.185 96.9618 350.516C96.6313 350.847 95.9702 351.288 95.4193 351.509L94.9785 350.406L102.471 345.665L104.234 343.901V342.578Z" fill="#DFE9F8"></path><path d="M92.4437 351.509C92.8844 352.281 94.3168 352.281 95.5288 351.509C96.7408 350.737 97.5121 349.524 97.0713 348.752C96.6306 347.98 95.1982 347.98 93.9862 348.752C92.7742 349.524 92.0029 350.737 92.4437 351.509Z" fill="#DFE9F8"></path><path d="M104.785 342.908C104.014 341.695 101.259 343.57 100.378 343.68C97.1825 344.121 95.7501 344.452 94.0974 345.003C92.9956 345.334 92.2243 346.437 92.1141 347.539C92.1141 347.539 92.0039 347.98 92.0039 348.201C92.0039 348.642 92.3345 349.634 92.2243 350.186C92.2243 350.296 92.2243 350.406 92.3345 350.516C92.5548 350.957 93.3261 351.068 94.0974 350.847C95.8603 350.186 100.268 348.091 101.259 347.429C102.361 346.657 103.683 345.665 104.234 345.003C104.785 344.673 105.336 343.68 104.785 342.908Z" fill="#2CD4D9"></path><path d="M92.5531 347.209C92.8837 347.76 93.9855 347.76 95.0873 347.209C96.079 346.657 96.6299 345.665 96.2994 345.003C95.9688 344.452 94.867 344.452 93.7651 345.003C92.7735 345.555 92.2226 346.547 92.5531 347.209Z" fill="#EDA780"></path><path d="M101.699 343.239C101.699 343.239 102.691 343.239 103.462 344.011" stroke="#2F8DD3" stroke-width="0.39" stroke-miterlimit="10" stroke-linecap="round"></path><path d="M100.818 343.68C100.818 343.68 101.81 343.68 102.581 344.452" stroke="#2F8DD3" stroke-width="0.39" stroke-miterlimit="10" stroke-linecap="round"></path><path d="M99.4961 343.901C99.4961 343.901 100.488 343.901 101.259 344.672" stroke="#2F8DD3" stroke-width="0.39" stroke-miterlimit="10" stroke-linecap="round"></path><path d="M98.0625 344.121C98.0625 344.121 99.0541 344.121 99.8254 344.893" stroke="#2F8DD3" stroke-width="0.39" stroke-miterlimit="10" stroke-linecap="round"></path><path d="M96.6309 344.342C96.6309 344.342 97.6225 344.342 98.3938 345.114" stroke="#2F8DD3" stroke-width="0.39" stroke-miterlimit="10" stroke-linecap="round"></path><path d="M92.8852 337.395L92.5547 346.878L96.4111 345.334L97.2926 338.057L92.8852 337.395Z" fill="#EDA780"></path><path d="M106.548 345.444L106.107 354.816L110.074 353.273L110.955 345.996L106.548 345.444Z" fill="#EDA780"></path><path d="M97.1816 338.718C96.851 338.498 96.5205 338.277 96.1899 338.057C96.0797 337.947 95.9696 337.947 95.8594 337.947L92.8844 337.506L92.6641 342.137C92.9946 342.578 93.5455 343.019 94.0964 343.349C94.9779 343.79 95.7492 344.121 96.5205 344.121L97.1816 338.718Z" fill="#D18F6B"></path><path d="M110.844 346.767C110.623 346.437 110.403 346.216 110.072 345.885L106.547 345.334L106.326 349.855C106.547 350.075 106.767 350.185 106.987 350.296C108.199 350.957 109.411 351.178 110.293 350.957L110.844 346.767Z" fill="#D18F6B"></path><path d="M98.5029 340.814V339.601C98.5029 338.608 97.7316 337.395 96.2992 336.624C94.5363 335.631 92.6632 335.631 92.1122 336.624C91.8919 336.954 91.8919 337.285 92.0021 337.616V338.829C92.0021 339.821 92.8835 340.924 94.2057 341.806C95.9687 342.798 97.8418 342.798 98.3927 341.806C98.5029 341.696 98.5029 341.475 98.5029 341.365V341.255C98.5029 341.034 98.5029 340.924 98.5029 340.814Z" fill="#DFE9F8"></path><path d="M111.396 346.767C111.396 345.775 110.515 344.562 109.192 343.79C107.429 342.798 105.556 342.798 105.005 343.79C104.895 344.011 104.785 344.342 104.895 344.562V345.885C104.895 346.878 105.667 348.091 107.099 348.862C108.862 349.855 110.735 349.855 111.286 348.862C111.396 348.642 111.396 348.421 111.396 348.201V346.767Z" fill="#DFE9F8"></path><path d="M115.912 277.635L114.7 271.24L96.0793 266.278C96.0793 266.278 93.9859 269.806 92.4433 278.517C89.4683 294.504 92.4433 336.403 92.4433 336.403C91.8924 337.285 92.7738 338.719 94.3164 339.601C95.859 340.483 97.5117 340.483 98.0626 339.601C98.1728 339.38 98.1728 339.27 98.1728 339.049C97.7321 316.005 102.58 290.425 102.58 290.425C102.58 291.527 105.225 344.121 105.225 344.121C105.114 345.003 105.996 346.216 107.318 346.988C108.861 347.87 110.624 347.87 111.174 346.988C111.285 346.768 111.285 346.547 111.285 346.327C111.946 326.039 115.031 299.356 116.353 288.33C116.573 286.566 116.684 284.912 116.573 283.148C116.573 281.383 116.353 279.509 115.912 277.635Z" fill="#120667"></path><path d="M102.581 290.535C102.581 290.535 100.707 286.786 99.9362 282.376C99.9362 282.376 99.6057 287.007 102.36 291.858L102.581 290.535Z" fill="#0F044C"></path><path d="M132 235.074C132 236.177 131.339 237.169 130.237 237.72C128.144 238.713 126.932 238.823 126.932 238.823C126.491 238.933 125.72 238.713 125.169 238.161C124.397 237.5 124.618 236.728 125.059 236.177C125.169 236.067 125.279 236.067 125.279 235.956C125.279 235.956 130.017 232.648 130.237 232.538C130.458 232.428 133.653 230.884 133.653 230.884L136.187 230.333C135.746 231.325 134.094 231.656 134.094 231.656L131.67 232.979C131.67 232.979 131.89 233.2 132.11 233.641C132.441 234.082 132 234.633 132 235.074Z" fill="#CE8F6B"></path><path d="M94.5371 252.054L116.464 251.724L120.651 247.093L128.253 238.272C130.567 237.39 129.906 234.854 129.906 234.854L130.677 233.31C132.55 233.751 132.661 233.09 132.661 233.09L130.457 232.208C130.457 232.208 127.923 233.2 127.482 233.751C126.931 234.523 124.838 236.618 124.838 236.618C124.617 236.728 124.507 236.949 124.287 237.169L117.125 244.116L114.15 246.982L97.1815 244.667L94.5371 252.054Z" fill="#EDA780"></path><path d="M115.692 245.328C115.692 245.328 118.777 245.218 119.328 248.416L117.014 251.172L104.453 245.328L109.411 245.99L114.149 246.651L115.692 245.328Z" fill="#2CD4D9"></path><path d="M115.472 249.518L99.0547 240.036C98.5038 239.705 97.7325 239.595 96.851 239.705C96.0797 239.815 95.3085 240.146 94.5372 240.587C93.7659 241.028 92.9946 241.69 92.5539 242.241C92.003 242.902 91.7826 243.785 91.8928 244.667L92.9946 266.608C92.6641 269.806 95.5288 273.886 100.267 276.532C105.886 279.729 111.836 279.729 113.709 276.532C114.04 275.87 114.26 275.209 114.26 274.437L118.227 253.487C118.447 252.164 117.345 250.51 115.472 249.518Z" fill="#2CD4D9"></path><path d="M106.106 243.123L109.632 241.138C110.624 240.587 111.285 239.484 111.285 238.382L110.073 230.443C110.073 230.443 104.233 230.994 104.233 231.105C104.123 231.215 106.106 243.123 106.106 243.123Z" fill="#EDA780"></path><path d="M101.59 238.492L107.76 237.72V246.762C107.76 246.982 107.76 247.093 107.65 247.313C107.099 248.195 105.336 248.195 103.794 247.313C102.471 246.541 101.7 245.328 101.7 244.446V238.492H101.59Z" fill="#EDA780"></path><path d="M110.404 225.812C110.294 225.151 109.743 224.71 109.082 224.71C108.421 224.71 107.76 225.261 107.649 225.923C107.539 225.923 107.539 225.923 107.429 225.923C107.209 225.923 106.988 225.923 106.658 226.033C105.556 225.371 104.234 225.04 102.911 225.151C99.2754 225.261 96.4106 228.128 96.0801 231.656C96.0801 232.869 96.3005 234.082 96.7412 235.184C96.7412 235.295 96.7412 235.295 96.7412 235.405C96.7412 236.066 97.0717 236.728 97.6226 237.059C97.6226 237.169 97.6226 237.39 97.6226 237.5C97.6226 238.602 98.3939 239.485 99.4958 239.485C99.8263 240.146 100.487 240.697 101.369 240.697H101.479C101.699 240.918 102.25 241.91 102.471 241.8C103.793 241.028 105.005 239.926 105.997 238.933C107.098 238.933 107.98 238.051 107.98 236.949C107.98 236.728 107.98 236.618 107.87 236.397V236.066C109.082 235.405 109.963 234.192 110.073 232.759C110.073 232.759 110.073 232.759 110.073 232.648C110.845 231.987 111.285 230.995 111.285 229.892C111.285 229.561 111.285 229.23 111.175 229.01C111.396 228.679 111.616 228.238 111.616 227.797C111.506 226.915 111.065 226.143 110.404 225.812Z" fill="#120667"></path><path d="M106.658 235.736C106.658 235.405 106.879 234.854 107.54 234.523C108.201 234.192 108.862 234.192 109.082 234.523V234.633L109.413 236.507L107.98 239.264C107.98 239.264 106.658 238.272 106.658 235.736Z" fill="#EDA780"></path><path d="M110.513 278.627C108.53 272.232 109.521 262.088 109.521 262.088L110.513 263.19L111.394 278.517C111.284 278.406 110.844 278.627 110.513 278.627Z" fill="#2F8DD3"></path><path d="M117.234 250.841C117.234 250.841 115.802 249.959 114.81 249.077C113.708 248.305 109.521 245.99 109.521 245.99L111.064 246.211L115.361 248.636C115.361 248.636 117.124 249.739 117.675 250.511L117.234 250.841Z" fill="#2F8DD3"></path><path d="M114.811 282.927C107.979 280.17 111.395 264.513 111.395 264.513C111.395 264.513 115.472 276.642 117.235 276.863C121.642 277.414 128.033 273.665 128.033 273.665C127.041 272.783 129.465 271.129 130.567 271.68C131.228 271.46 132.109 270.909 132.991 271.129C134.754 271.68 133.542 275.76 133.542 275.76C131.008 276.532 130.677 276.311 130.677 276.311C130.677 276.311 119.108 284.581 114.811 282.927Z" fill="#EDA780"></path><path d="M132.88 271.129C132.88 271.129 131.668 275.099 131.779 275.981L134.864 275.76C134.864 275.76 136.737 276.201 137.178 275.319L135.304 274.988L133.101 274.768L134.974 274.878L137.398 274.657C137.398 274.657 137.508 274.327 137.398 273.996C137.288 273.775 136.957 273.665 136.737 273.665C136.737 273.665 136.847 273.445 136.627 273.114C136.406 272.783 134.092 272.563 134.092 272.563C134.092 272.563 135.304 272.563 135.635 272.673C135.855 272.673 136.186 272.673 136.296 272.232C136.406 271.901 135.855 271.68 135.635 271.57C134.754 271.35 132.88 271.129 132.88 271.129Z" fill="#EDA780"></path><path d="M114.81 282.927C107.979 280.17 111.064 264.183 111.064 264.183L118.116 253.377C118.116 253.377 115.361 276.532 117.124 276.752C121.531 277.304 119.107 284.581 114.81 282.927Z" fill="#2CD4D9"></path><path opacity="0.7" d="M541 284.581L540.889 224.269L463.32 179.503V239.815L541 284.581Z" fill="#2F8DD3"></path><path d="M206.154 229.561V107.504L82.9688 37.268V10.6953" stroke="url(#paint4_linear)" stroke-miterlimit="10" stroke-linecap="round" stroke-linejoin="round"></path><g opacity="0.2"><path opacity="0.2" d="M86.2743 8.26954C86.2743 5.6233 84.4012 2.42576 82.0874 1.10264C79.7735 -0.220477 77.9004 0.882122 77.9004 3.52836C77.9004 6.1746 79.7735 9.37214 82.0874 10.6953C84.4012 12.0184 86.2743 10.9158 86.2743 8.26954Z" stroke="#5333ED" stroke-miterlimit="10"></path></g><defs><linearGradient id="paint0_linear" x1="354.033" y1="329.505" x2="380.867" y2="375.951" gradientUnits="userSpaceOnUse"><stop stop-color="#1B0971"></stop><stop offset="1" stop-color="#1B0971" stop-opacity="0"></stop></linearGradient><linearGradient id="paint1_linear" x1="107.923" y1="287.263" x2="410.065" y2="287.263" gradientUnits="userSpaceOnUse"><stop stop-color="#DFE9F8"></stop><stop offset="1" stop-color="white"></stop></linearGradient><linearGradient id="paint2_linear" x1="341.414" y1="319.809" x2="291.622" y2="37.6199" gradientUnits="userSpaceOnUse"><stop stop-color="#DFE9F8"></stop><stop offset="1" stop-color="white"></stop></linearGradient><linearGradient id="paint3_linear" x1="137.027" y1="386.214" x2="110.947" y2="341.072" gradientUnits="userSpaceOnUse"><stop offset="0.1508" stop-color="#5333ED" stop-opacity="0"></stop><stop offset="0.9949" stop-color="#5333ED" stop-opacity="0.3"></stop></linearGradient><linearGradient id="paint4_linear" x1="144.552" y1="10.1432" x2="144.552" y2="230.087" gradientUnits="userSpaceOnUse"><stop stop-color="#5333ED" stop-opacity="0.1"></stop><stop offset="0.6205" stop-color="#5333ED" stop-opacity="0.3"></stop><stop offset="1" stop-color="#5333ED" stop-opacity="0"></stop></linearGradient></defs></svg> 